<mxfile host="app.diagrams.net" agent="Mozilla/5.0 (Windows NT 10.0; Win64; x64) AppleWebKit/537.36 (KHTML, like Gecko) Chrome/129.0.0.0 Safari/537.36" version="24.8.3">
  <diagram name="Page-1" id="e7e014a7-5840-1c2e-5031-d8a46d1fe8dd">
    <mxGraphModel dx="1195" dy="650" grid="1" gridSize="10" guides="1" tooltips="1" connect="1" arrows="1" fold="1" page="1" pageScale="1" pageWidth="1169" pageHeight="826" background="none" math="0" shadow="0">
      <root>
        <mxCell id="0" />
        <mxCell id="1" parent="0" />
        <mxCell id="2" value="Processus de Traitement des Tweets" style="swimlane;whiteSpace=wrap" parent="1" vertex="1">
          <mxGeometry x="164.5" y="128" width="280" height="942" as="geometry" />
        </mxCell>
        <mxCell id="obNz4sW9q6NuTTQlPOyx-42" style="edgeStyle=orthogonalEdgeStyle;rounded=0;orthogonalLoop=1;jettySize=auto;html=1;exitX=0;exitY=0.3;exitDx=0;exitDy=0;exitPerimeter=0;" edge="1" parent="2" source="obNz4sW9q6NuTTQlPOyx-46">
          <mxGeometry relative="1" as="geometry">
            <mxPoint x="215.5" y="322" as="sourcePoint" />
            <mxPoint x="145.5" y="332" as="targetPoint" />
            <Array as="points">
              <mxPoint x="216" y="345" />
              <mxPoint x="146" y="345" />
            </Array>
          </mxGeometry>
        </mxCell>
        <mxCell id="obNz4sW9q6NuTTQlPOyx-60" style="edgeStyle=orthogonalEdgeStyle;rounded=0;orthogonalLoop=1;jettySize=auto;html=1;exitX=0.5;exitY=1;exitDx=0;exitDy=0;entryX=0.5;entryY=0;entryDx=0;entryDy=0;" edge="1" parent="2" source="obNz4sW9q6NuTTQlPOyx-41" target="obNz4sW9q6NuTTQlPOyx-43">
          <mxGeometry relative="1" as="geometry" />
        </mxCell>
        <mxCell id="obNz4sW9q6NuTTQlPOyx-41" value="Début" style="ellipse;whiteSpace=wrap;html=1;" vertex="1" parent="2">
          <mxGeometry x="65" y="32" width="120" height="80" as="geometry" />
        </mxCell>
        <mxCell id="obNz4sW9q6NuTTQlPOyx-43" value="&lt;strong&gt;Lire un tweet depuis la zone d&#39;atterrissage&lt;/strong&gt;." style="rounded=0;whiteSpace=wrap;html=1;" vertex="1" parent="2">
          <mxGeometry x="65" y="143" width="120" height="60" as="geometry" />
        </mxCell>
        <mxCell id="obNz4sW9q6NuTTQlPOyx-44" value="&lt;strong&gt;Tweet correctement structuré ?&lt;/strong&gt;" style="rhombus;whiteSpace=wrap;html=1;" vertex="1" parent="2">
          <mxGeometry x="165.5" y="203" width="100" height="98" as="geometry" />
        </mxCell>
        <mxCell id="obNz4sW9q6NuTTQlPOyx-45" value="Nettoyage du tweet" style="rounded=0;whiteSpace=wrap;html=1;" vertex="1" parent="2">
          <mxGeometry x="30" y="270" width="135.5" height="60" as="geometry" />
        </mxCell>
        <mxCell id="obNz4sW9q6NuTTQlPOyx-46" value="oui" style="text;html=1;align=center;verticalAlign=middle;resizable=0;points=[];autosize=1;strokeColor=none;fillColor=none;" vertex="1" parent="2">
          <mxGeometry x="210" y="292" width="40" height="30" as="geometry" />
        </mxCell>
        <mxCell id="obNz4sW9q6NuTTQlPOyx-47" value="" style="edgeStyle=elbowEdgeStyle;elbow=vertical;endArrow=classic;html=1;curved=0;rounded=0;endSize=8;startSize=8;exitX=0.5;exitY=0;exitDx=0;exitDy=0;" edge="1" parent="2" source="obNz4sW9q6NuTTQlPOyx-44">
          <mxGeometry width="50" height="50" relative="1" as="geometry">
            <mxPoint x="215.5" y="212" as="sourcePoint" />
            <mxPoint x="185.5" y="172" as="targetPoint" />
            <Array as="points">
              <mxPoint x="226" y="172" />
            </Array>
          </mxGeometry>
        </mxCell>
        <mxCell id="obNz4sW9q6NuTTQlPOyx-48" value="non" style="text;html=1;align=center;verticalAlign=middle;resizable=0;points=[];autosize=1;strokeColor=none;fillColor=none;" vertex="1" parent="2">
          <mxGeometry x="215.5" y="192" width="40" height="30" as="geometry" />
        </mxCell>
        <mxCell id="obNz4sW9q6NuTTQlPOyx-50" value="Extraction des Données" style="rounded=0;whiteSpace=wrap;html=1;" vertex="1" parent="2">
          <mxGeometry x="30" y="380" width="170" height="20" as="geometry" />
        </mxCell>
        <mxCell id="obNz4sW9q6NuTTQlPOyx-52" value="" style="edgeStyle=segmentEdgeStyle;endArrow=classic;html=1;curved=0;rounded=0;endSize=8;startSize=8;exitX=0.565;exitY=0.967;exitDx=0;exitDy=0;exitPerimeter=0;" edge="1" parent="2" source="obNz4sW9q6NuTTQlPOyx-45">
          <mxGeometry width="50" height="50" relative="1" as="geometry">
            <mxPoint x="87.5" y="342" as="sourcePoint" />
            <mxPoint x="107.5" y="382" as="targetPoint" />
            <Array as="points">
              <mxPoint x="108" y="328" />
              <mxPoint x="108" y="352" />
            </Array>
          </mxGeometry>
        </mxCell>
        <mxCell id="obNz4sW9q6NuTTQlPOyx-59" style="edgeStyle=orthogonalEdgeStyle;rounded=0;orthogonalLoop=1;jettySize=auto;html=1;exitX=0.5;exitY=1;exitDx=0;exitDy=0;entryX=0.5;entryY=0;entryDx=0;entryDy=0;" edge="1" parent="2" source="obNz4sW9q6NuTTQlPOyx-55" target="obNz4sW9q6NuTTQlPOyx-56">
          <mxGeometry relative="1" as="geometry" />
        </mxCell>
        <mxCell id="obNz4sW9q6NuTTQlPOyx-55" value="&lt;li&gt;&lt;strong&gt;Identifier l’auteur du tweet&lt;/strong&gt;&lt;/li&gt;&lt;li&gt;&lt;strong&gt;Extraire les hashtags&lt;/strong&gt;&lt;/li&gt;&lt;li&gt;&lt;strong&gt;Extraire les mentions&lt;/strong&gt;&lt;/li&gt;" style="rounded=0;whiteSpace=wrap;html=1;" vertex="1" parent="2">
          <mxGeometry x="30" y="400" width="170" height="80" as="geometry" />
        </mxCell>
        <mxCell id="obNz4sW9q6NuTTQlPOyx-62" style="edgeStyle=orthogonalEdgeStyle;rounded=0;orthogonalLoop=1;jettySize=auto;html=1;entryX=0.5;entryY=0;entryDx=0;entryDy=0;" edge="1" parent="2" source="obNz4sW9q6NuTTQlPOyx-56" target="obNz4sW9q6NuTTQlPOyx-61">
          <mxGeometry relative="1" as="geometry" />
        </mxCell>
        <mxCell id="obNz4sW9q6NuTTQlPOyx-56" value="Analyse de Sentiment(positif ?, négatif ?, neutre ?)" style="rounded=0;whiteSpace=wrap;html=1;" vertex="1" parent="2">
          <mxGeometry x="55" y="542" width="175" height="68" as="geometry" />
        </mxCell>
        <mxCell id="obNz4sW9q6NuTTQlPOyx-61" value="&lt;strong&gt;Identification des topics&lt;/strong&gt; pour attribuer des sujets au tweet." style="rounded=0;whiteSpace=wrap;html=1;" vertex="1" parent="2">
          <mxGeometry x="35.5" y="640" width="180" height="70" as="geometry" />
        </mxCell>
        <mxCell id="obNz4sW9q6NuTTQlPOyx-76" style="edgeStyle=orthogonalEdgeStyle;rounded=0;orthogonalLoop=1;jettySize=auto;html=1;entryX=0.5;entryY=0;entryDx=0;entryDy=0;" edge="1" parent="2" source="obNz4sW9q6NuTTQlPOyx-63" target="obNz4sW9q6NuTTQlPOyx-67">
          <mxGeometry relative="1" as="geometry" />
        </mxCell>
        <mxCell id="obNz4sW9q6NuTTQlPOyx-63" value="&lt;strong&gt;Enregistrer le tweet traité dans le DataFrame&lt;/strong&gt;." style="rounded=0;whiteSpace=wrap;html=1;" vertex="1" parent="2">
          <mxGeometry x="35.5" y="752" width="190" height="58" as="geometry" />
        </mxCell>
        <mxCell id="obNz4sW9q6NuTTQlPOyx-65" style="edgeStyle=orthogonalEdgeStyle;rounded=0;orthogonalLoop=1;jettySize=auto;html=1;entryX=0.45;entryY=-0.017;entryDx=0;entryDy=0;entryPerimeter=0;" edge="1" parent="2" source="obNz4sW9q6NuTTQlPOyx-61" target="obNz4sW9q6NuTTQlPOyx-63">
          <mxGeometry relative="1" as="geometry" />
        </mxCell>
        <mxCell id="obNz4sW9q6NuTTQlPOyx-68" style="edgeStyle=orthogonalEdgeStyle;rounded=0;orthogonalLoop=1;jettySize=auto;html=1;" edge="1" parent="2" source="obNz4sW9q6NuTTQlPOyx-67">
          <mxGeometry relative="1" as="geometry">
            <mxPoint x="15.5" y="72" as="targetPoint" />
          </mxGeometry>
        </mxCell>
        <mxCell id="obNz4sW9q6NuTTQlPOyx-67" value="Fin" style="ellipse;whiteSpace=wrap;html=1;" vertex="1" parent="2">
          <mxGeometry x="70.5" y="852" width="120" height="80" as="geometry" />
        </mxCell>
        <mxCell id="obNz4sW9q6NuTTQlPOyx-72" value="" style="line;strokeWidth=2;html=1;" vertex="1" parent="2">
          <mxGeometry x="16" y="67" width="54.5" height="10" as="geometry" />
        </mxCell>
        <mxCell id="3" value="Analyse de Données sur les Tweets Traités" style="swimlane;whiteSpace=wrap" parent="1" vertex="1">
          <mxGeometry x="444.5" y="128" width="280" height="942" as="geometry" />
        </mxCell>
        <mxCell id="obNz4sW9q6NuTTQlPOyx-83" style="edgeStyle=orthogonalEdgeStyle;rounded=0;orthogonalLoop=1;jettySize=auto;html=1;exitX=0.5;exitY=1;exitDx=0;exitDy=0;entryX=0.5;entryY=0;entryDx=0;entryDy=0;" edge="1" parent="3" source="obNz4sW9q6NuTTQlPOyx-75" target="obNz4sW9q6NuTTQlPOyx-82">
          <mxGeometry relative="1" as="geometry" />
        </mxCell>
        <mxCell id="obNz4sW9q6NuTTQlPOyx-75" value="Démarrer l&#39;analyse des données" style="rounded=0;whiteSpace=wrap;html=1;" vertex="1" parent="3">
          <mxGeometry x="65.5" y="42" width="134.5" height="68" as="geometry" />
        </mxCell>
        <mxCell id="obNz4sW9q6NuTTQlPOyx-88" style="edgeStyle=orthogonalEdgeStyle;rounded=0;orthogonalLoop=1;jettySize=auto;html=1;exitX=0.5;exitY=1;exitDx=0;exitDy=0;entryX=0.5;entryY=0;entryDx=0;entryDy=0;" edge="1" parent="3" source="obNz4sW9q6NuTTQlPOyx-82" target="obNz4sW9q6NuTTQlPOyx-84">
          <mxGeometry relative="1" as="geometry" />
        </mxCell>
        <mxCell id="obNz4sW9q6NuTTQlPOyx-82" value="Extraire les hashtags les plus fréquents selon un paramètre &lt;code&gt;K&lt;/code&gt; donné par l&#39;utilisateur" style="rounded=0;whiteSpace=wrap;html=1;" vertex="1" parent="3">
          <mxGeometry x="65.5" y="162" width="134.5" height="60" as="geometry" />
        </mxCell>
        <mxCell id="obNz4sW9q6NuTTQlPOyx-84" value="Top K Hashtags" style="swimlane;fontStyle=0;childLayout=stackLayout;horizontal=1;startSize=30;horizontalStack=0;resizeParent=1;resizeParentMax=0;resizeLast=0;collapsible=1;marginBottom=0;whiteSpace=wrap;html=1;" vertex="1" parent="3">
          <mxGeometry x="65.5" y="260" width="140" height="90" as="geometry" />
        </mxCell>
        <mxCell id="obNz4sW9q6NuTTQlPOyx-85" value="&lt;span style=&quot;text-align: center;&quot;&gt;Extraire les hashtags les plus fréquents selon un paramètre&amp;nbsp;&lt;/span&gt;&lt;code style=&quot;text-align: center;&quot;&gt;K&lt;/code&gt;&lt;span style=&quot;text-align: center;&quot;&gt;&amp;nbsp;donné par l&#39;utilisateur&lt;/span&gt;" style="text;strokeColor=none;fillColor=none;align=left;verticalAlign=middle;spacingLeft=4;spacingRight=4;overflow=hidden;points=[[0,0.5],[1,0.5]];portConstraint=eastwest;rotatable=0;whiteSpace=wrap;html=1;" vertex="1" parent="obNz4sW9q6NuTTQlPOyx-84">
          <mxGeometry y="30" width="140" height="60" as="geometry" />
        </mxCell>
        <mxCell id="4" value="Thread 3" style="swimlane;whiteSpace=wrap" parent="1" vertex="1">
          <mxGeometry x="724.5" y="128" width="280" height="570" as="geometry" />
        </mxCell>
        <mxCell id="33" value="process&#xa;command" style="" parent="4" vertex="1">
          <mxGeometry x="90" y="405" width="110" height="50" as="geometry" />
        </mxCell>
        <mxCell id="38" value="" style="ellipse;shape=endState;fillColor=#000000;strokeColor=#ff0000" parent="4" vertex="1">
          <mxGeometry x="130" y="500" width="30" height="30" as="geometry" />
        </mxCell>
        <mxCell id="39" value="" style="endArrow=open;strokeColor=#FF0000;endFill=1;rounded=0" parent="4" source="33" target="38" edge="1">
          <mxGeometry relative="1" as="geometry" />
        </mxCell>
        <mxCell id="obNz4sW9q6NuTTQlPOyx-49" value="" style="rounded=0;whiteSpace=wrap;html=1;" vertex="1" parent="4">
          <mxGeometry x="85" y="152" width="120" height="60" as="geometry" />
        </mxCell>
        <mxCell id="obNz4sW9q6NuTTQlPOyx-51" value="" style="edgeStyle=elbowEdgeStyle;elbow=horizontal;endArrow=classic;html=1;curved=0;rounded=0;endSize=8;startSize=8;" edge="1" parent="4">
          <mxGeometry width="50" height="50" relative="1" as="geometry">
            <mxPoint x="95.5" y="302" as="sourcePoint" />
            <mxPoint x="145.5" y="252" as="targetPoint" />
          </mxGeometry>
        </mxCell>
        <mxCell id="obNz4sW9q6NuTTQlPOyx-79" style="edgeStyle=orthogonalEdgeStyle;rounded=0;orthogonalLoop=1;jettySize=auto;html=1;exitX=1;exitY=0.5;exitDx=0;exitDy=0;" edge="1" parent="1" source="obNz4sW9q6NuTTQlPOyx-77" target="obNz4sW9q6NuTTQlPOyx-80">
          <mxGeometry relative="1" as="geometry">
            <mxPoint x="380" y="60" as="targetPoint" />
          </mxGeometry>
        </mxCell>
        <mxCell id="obNz4sW9q6NuTTQlPOyx-77" value="1" style="ellipse;whiteSpace=wrap;html=1;aspect=fixed;" vertex="1" parent="1">
          <mxGeometry x="250" y="20" width="80" height="80" as="geometry" />
        </mxCell>
        <mxCell id="obNz4sW9q6NuTTQlPOyx-78" value="2" style="ellipse;whiteSpace=wrap;html=1;aspect=fixed;" vertex="1" parent="1">
          <mxGeometry x="530" y="20" width="80" height="80" as="geometry" />
        </mxCell>
        <mxCell id="obNz4sW9q6NuTTQlPOyx-80" value="Tous les tweets ont été traités et enregistrés dans le DataFrame." style="text;html=1;align=center;verticalAlign=middle;whiteSpace=wrap;rounded=0;" vertex="1" parent="1">
          <mxGeometry x="350" y="20" width="150" height="55" as="geometry" />
        </mxCell>
        <mxCell id="obNz4sW9q6NuTTQlPOyx-81" style="edgeStyle=orthogonalEdgeStyle;rounded=0;orthogonalLoop=1;jettySize=auto;html=1;exitX=1;exitY=0.5;exitDx=0;exitDy=0;entryX=0;entryY=0.344;entryDx=0;entryDy=0;entryPerimeter=0;" edge="1" parent="1" source="obNz4sW9q6NuTTQlPOyx-80" target="obNz4sW9q6NuTTQlPOyx-78">
          <mxGeometry relative="1" as="geometry" />
        </mxCell>
      </root>
    </mxGraphModel>
  </diagram>
</mxfile>
